<svg width="37" height="35" xmlns="http://www.w3.org/2000/svg">

 <g>
  <title>background</title>
  <rect x="-1" y="-1" width="39" height="37" id="canvas_background" fill="none"/>
 </g>
 <g>
  <title>Layer 1</title>
  <path d="m2.46463,35c-1.3589,0 -2.46463,-1.2164 -2.46463,-2.71188c0,-2.94656 0,-26.52018 0,-29.46814c0,-1.49556 1.10573,-2.71045 2.46463,-2.71045c3.20738,-0.00432 28.86187,-0.02735 32.06917,-0.03167c1.3605,0 2.4662,1.21777 2.4662,2.71333c0,2.94941 0,26.54751 0,29.49693c0,1.49548 -1.1057,2.71188 -2.4662,2.71188c-6.4132,0 -28.86179,0 -32.06917,0zm0.00153,-32.95587c-0.14337,0 -0.41637,0.30229 -0.41637,0.77585c0,2.94797 0,26.52158 0,29.46814c0,0.47357 0.273,0.77578 0.41484,0.77578c3.20738,0 28.86337,0 32.06917,0c0.1434,0 0.4164,-0.30221 0.4164,-0.77578c0,-2.94942 0,-26.54752 0,-29.49693c0,-0.475 -0.273,-0.77728 -0.4148,-0.77728c-19.2413,0.01727 -29.93099,0.02734 -32.06924,0.03022zm7.1331,21.96862c-1.13166,0 -2.0498,0.86805 -2.0498,1.9361c0,1.06806 0.91814,1.93457 2.0498,1.93457c1.13164,0 2.04984,-0.86652 2.05134,-1.93457c0,-1.06805 -0.9197,-1.9361 -2.05134,-1.9361zm5.39294,-3.15373c-1.2903,-1.2164 -3.0046,-1.8871 -4.8317,-1.8871c-0.0046,0 -0.0076,0 -0.0122,0c-0.56734,0.00143 -1.02489,0.43469 -1.02336,0.97015c0.00152,0.53402 0.45906,0.96585 1.02486,0.96585c0.0031,0 0.0077,0 0.0107,0c1.2796,0 2.4799,0.46784 3.3828,1.31993c0.9029,0.85219 1.4001,1.9893 1.397,3.19986c0,0.53403 0.4576,0.96729 1.0234,0.96872c0.0015,0 0.0015,0 0.0015,0c0.5658,0 1.0249,-0.43183 1.0264,-0.96585c0.0031,-1.72874 -0.7076,-3.35097 -1.9994,-4.57156zm-4.8424,-7.38574c-0.5658,0 -1.02486,0.43182 -1.02486,0.96585c-0.00153,0.53403 0.45754,0.96728 1.02486,0.96872c5.8551,0.00429 10.6181,4.50107 10.6181,10.02129c0,0.53403 0.4591,0.96729 1.0264,0.96729c0.5658,0 1.0234,-0.43326 1.0234,-0.96729c0,-6.58684 -5.6827,-11.95014 -12.6679,-11.95587l0,0.00001zm4.8424,7.38574c-1.2903,-1.2164 -3.0046,-1.8871 -4.8317,-1.8871c-0.0046,0 -0.0076,0 -0.0122,0c-0.56734,0.00143 -1.02489,0.43469 -1.02336,0.97015c0.00152,0.53402 0.45906,0.96585 1.02486,0.96585c0.0031,0 0.0077,0 0.0107,0c1.2796,0 2.4799,0.46784 3.3828,1.31993c0.9029,0.85219 1.4001,1.9893 1.397,3.19986c0,0.53403 0.4576,0.96729 1.0234,0.96872c0.0015,0 0.0015,0 0.0015,0c0.5658,0 1.0249,-0.43183 1.0264,-0.96585c0.0031,-1.72874 -0.7076,-3.35097 -1.9994,-4.57156zm13.7629,4.62916c-0.0061,-9.70897 -8.3807,-17.60859 -18.6678,-17.60859c-0.56582,0 -1.02642,0.43327 -1.02642,0.96731c0,0.53403 0.4606,0.96727 1.02642,0.96727c9.157,0 16.6119,7.03166 16.618,15.67544c0,0.53402 0.459,0.96728 1.0249,0.96728c0.6848,-0.28931 1.0249,-0.61167 1.0249,-0.96872l0,0.00001zm-18.6678,-11.95598c-0.56582,0 -1.02489,0.43336 -1.02489,0.96739c-0.00153,0.53403 0.45754,0.96729 1.02489,0.96729c5.855,0.00572 10.6181,4.50107 10.6181,10.0213c0,0.53546 0.459,0.96871 1.0249,0.96871c0.5658,0 1.0248,-0.43326 1.0248,-0.96871c0,-6.58685 -5.6826,-11.95015 -12.6678,-11.95598z" fill="#3c3c3c" id="svg_1" stroke="null"/>
 </g>
</svg>