<svg width="37" height="35" xmlns="http://www.w3.org/2000/svg">
 <defs>
  <linearGradient y2="0.008692" x2="0.601103" y1="0.979968" x1="0.359976" id="paint0_linear">
   <stop stop-color="white" offset="0.9953"/>
   <stop stop-color="white" offset="1"/>
  </linearGradient>
 </defs>
 <g>
  <title>background</title>
  <rect fill="none" id="canvas_background" height="402" width="582" y="-1" x="-1"/>
 </g>
 <g>
  <title>Layer 1</title>
  <path stroke="null" id="svg_1" fill="url(#paint0_linear)" d="m2.46463,35c-1.3589,0 -2.46463,-1.216396 -2.46463,-2.711877c0,-2.946563 0,-26.520178 0,-29.468142c0,-1.495563 1.10573,-2.710455 2.46463,-2.710455c3.20738,-0.004317 28.86187,-0.027346 32.06917,-0.031663c1.3605,0 2.4662,1.217767 2.4662,2.71333c0,2.949407 0,26.547503 0,29.49693c0,1.495481 -1.1057,2.711877 -2.4662,2.711877c-6.4132,0 -28.86179,0 -32.06917,0zm0.00153,-32.955872c-0.14337,0 -0.41637,0.302288 -0.41637,0.775854c0,2.947964 0,26.521579 0,29.468142c0,0.473566 0.273,0.775772 0.41484,0.775772c3.20738,0 28.86337,0 32.06917,0c0.1434,0 0.4164,-0.302206 0.4164,-0.775772c0,-2.949427 0,-26.547524 0,-29.49693c0,-0.475008 -0.273,-0.777286 -0.4148,-0.777286c-19.2413,0.017269 -29.93099,0.027346 -32.06924,0.030221zm7.1331,21.968617c-1.13166,0 -2.0498,0.86805 -2.0498,1.936105c0,1.068055 0.91814,1.93457 2.0498,1.93457c1.13164,0 2.04984,-0.866516 2.05134,-1.93457c0,-1.068055 -0.9197,-1.936105 -2.05134,-1.936105zm5.39294,-3.153728c-1.2903,-1.216396 -3.0046,-1.887101 -4.8317,-1.887101c-0.0046,0 -0.0076,0 -0.0122,0c-0.56734,0.001432 -1.02489,0.43469 -1.02336,0.97015c0.00152,0.534027 0.45906,0.965853 1.02486,0.965853c0.0031,0 0.0077,0 0.0107,0c1.2796,0 2.4799,0.467837 3.3828,1.319927c0.9029,0.852193 1.4001,1.989303 1.397,3.199867c0,0.534027 0.4576,0.967285 1.0234,0.968717c0.0015,0 0.0015,0 0.0015,0c0.5658,0 1.0249,-0.431826 1.0264,-0.965853c0.0031,-1.728735 -0.7076,-3.350971 -1.9994,-4.571561zm-4.8424,-7.385742c-0.5658,0 -1.02486,0.431826 -1.02486,0.965853c-0.00153,0.534027 0.45754,0.967285 1.02486,0.968717c5.8551,0.004297 10.6181,4.501073 10.6181,10.0213c0,0.534027 0.4591,0.967285 1.0264,0.967285c0.5658,0 1.0234,-0.433258 1.0234,-0.967285c0,-6.586849 -5.6827,-11.950141 -12.6679,-11.95587zm4.8424,7.385742c-1.2903,-1.216396 -3.0046,-1.887101 -4.8317,-1.887101c-0.0046,0 -0.0076,0 -0.0122,0c-0.56734,0.001432 -1.02489,0.43469 -1.02336,0.97015c0.00152,0.534027 0.45906,0.965853 1.02486,0.965853c0.0031,0 0.0077,0 0.0107,0c1.2796,0 2.4799,0.467837 3.3828,1.319927c0.9029,0.852193 1.4001,1.989303 1.397,3.199867c0,0.534027 0.4576,0.967285 1.0234,0.968717c0.0015,0 0.0015,0 0.0015,0c0.5658,0 1.0249,-0.431826 1.0264,-0.965853c0.0031,-1.728735 -0.7076,-3.350971 -1.9994,-4.571561zm13.7629,4.629158c-0.0061,-9.708965 -8.3807,-17.608581 -18.6678,-17.608581c-0.56582,0 -1.02642,0.433268 -1.02642,0.967306c0,0.534027 0.4606,0.967265 1.02642,0.967265c9.157,0 16.6119,7.031667 16.618,15.675442c0,0.534027 0.459,0.967285 1.0249,0.967285c0.6848,-0.289316 1.0249,-0.611676 1.0249,-0.968717zm-18.6678,-11.955973c-0.56582,0 -1.02489,0.43336 -1.02489,0.967388c-0.00153,0.534027 0.45754,0.967285 1.02489,0.967285c5.855,0.005729 10.6181,4.501073 10.6181,10.0213c0,0.53546 0.459,0.968717 1.0249,0.968717c0.5658,0 1.0248,-0.433258 1.0248,-0.968717c0,-6.586849 -5.6826,-11.950141 -12.6678,-11.955973z"/>
 </g>
</svg>